<?xml version="1.0" encoding="UTF-8"?>
<svg version="1.1" xmlns="http://www.w3.org/2000/svg" width="600" height="600">
<path d="M0 0 C198 0 396 0 600 0 C600 198 600 396 600 600 C402 600 204 600 0 600 C0 402 0 204 0 0 Z " fill="#FEFEFE" transform="translate(0,0)"/>
<path d="M0 0 C0.99 0.33 1.98 0.66 3 1 C2.58685438 5.44926052 -0.50461527 7.84100104 -3.5625 10.75 C-4.08263672 11.25660156 -4.60277344 11.76320313 -5.13867188 12.28515625 C-6.41910084 13.53034405 -7.70867554 14.76611502 -9 16 C-5.88670167 20.07393317 -2.54947945 23.20654155 1.390625 26.44921875 C2.18726563 27.21685547 2.18726563 27.21685547 3 28 C3 28.66 3 29.32 3 30 C3.58104492 30.25434814 4.16208984 30.50869629 4.76074219 30.77075195 C7.24179642 32.13273495 8.85518103 33.6431444 10.828125 35.66796875 C11.54613281 36.39693359 12.26414062 37.12589844 13.00390625 37.87695312 C13.74511719 38.63943359 14.48632812 39.40191406 15.25 40.1875 C21.36530761 46.45901839 21.36530761 46.45901839 27.84375 52.34765625 C33.27256697 57.01040682 38.22877937 62.15857588 43.25 67.25 C45.18975917 69.21648813 47.13291537 71.1795299 49.078125 73.140625 C49.92793945 74.00204102 50.77775391 74.86345703 51.65332031 75.75097656 C53.90529413 78.01039622 53.90529413 78.01039622 56.30761719 79.67871094 C56.86610352 80.11473633 57.42458984 80.55076172 58 81 C58 81.66 58 82.32 58 83 C58.99 83 59.98 83 61 83 C61.24492187 82.42765625 61.48984375 81.8553125 61.7421875 81.265625 C63.21110099 78.61975598 64.95348244 76.85146861 67.125 74.75 C67.84945312 74.04359375 68.57390625 73.3371875 69.3203125 72.609375 C70.15175781 71.81273437 70.15175781 71.81273437 71 71 C72.32 71.66 73.64 72.32 75 73 C75 76.87454626 73.44116598 77.91256664 70.81155396 80.56170654 C70.19440521 81.16806946 69.57725647 81.77443237 68.94140625 82.39916992 C68.29767059 83.04334366 67.65393494 83.6875174 66.99069214 84.35121155 C64.85499349 86.48481535 62.70885472 88.60758937 60.5625 90.73046875 C59.0821119 92.2052634 57.60238349 93.68072053 56.12329102 95.15681458 C52.22374199 99.04489521 48.31526843 102.92388413 44.40490723 106.80108643 C40.41818482 110.75715107 36.43991459 114.72169484 32.4609375 118.68554688 C24.64890261 126.46538241 16.82741918 134.2356452 9 142 C8.38125 141.66226563 7.7625 141.32453125 7.125 140.9765625 C4.52162367 139.78015794 3.66924984 140.16585943 1 141 C-3.64823656 141 -4.50838202 139.95814261 -7.68612671 136.81155396 C-8.28889435 136.19440521 -8.89166199 135.57725647 -9.51269531 134.94140625 C-10.15701508 134.29767059 -10.80133484 133.65393494 -11.46517944 132.99069214 C-13.59577701 130.85730447 -15.71185256 128.71009092 -17.828125 126.5625 C-19.30127139 125.08189458 -20.7753025 123.60216894 -22.25018311 122.12329102 C-26.13226972 118.22592176 -30.00219596 114.3166902 -33.86975098 110.40490723 C-37.81738167 106.41638103 -41.77634046 102.43913483 -45.734375 98.4609375 C-53.50074226 90.65165287 -61.25431565 82.82979572 -69 75 C-68.01 73.68 -67.02 72.36 -66 71 C-66.33 70.401875 -66.66 69.80375 -67 69.1875 C-68 67 -68 67 -68 64 C-66.75 62.421875 -66.75 62.421875 -65 60.75 C-64.03126953 59.81994141 -64.03126953 59.81994141 -63.04296875 58.87109375 C-61.16123773 57.1476728 -59.24944782 55.47332109 -57.3125 53.8125 C-53.69860287 50.70384674 -50.34713174 47.38885354 -47 44 C-43.1487936 40.1010267 -39.23578249 36.39175684 -35.05859375 32.83984375 C-31.92846838 30.04233133 -29.01314342 27.03375494 -26.06616211 24.04663086 C-22.8726103 20.82653525 -19.56449686 17.83127993 -16.11328125 14.89453125 C-12.3837571 11.55105766 -8.91868979 7.93519054 -5.41796875 4.35546875 C-3 2 -3 2 0 0 Z " fill="#FBFBFB" transform="translate(276,110)"/>
<path d="M0 0 C4.13621084 3.3810038 7.81316569 6.66590534 11 11 C15.44340045 10.29022269 17.21595096 7.92009162 20.12109375 4.69140625 C22 3 22 3 27 1 C40.53 14.53 54.06 28.06 68 42 C73.65921856 37.17806259 73.65921856 37.17806259 79.00756836 32.10595703 C79.70776596 31.4056839 80.40796356 30.70541077 81.12937927 29.98391724 C82.22355919 28.88199539 82.22355919 28.88199539 83.33984375 27.7578125 C84.10680069 26.98944061 84.87375763 26.22106873 85.66395569 25.42941284 C88.0908474 22.99696491 90.51422127 20.56104678 92.9375 18.125 C94.59156486 16.46591448 96.24585945 14.80705798 97.90039062 13.1484375 C101.93625433 9.10160291 105.96924277 5.05192047 110 1 C113.39117946 2.61603913 115.93327454 4.49624404 118.75 7 C119.54921875 7.70125 120.3484375 8.4025 121.171875 9.125 C123 11 123 11 123 13 C123.99 13 124.98 13 126 13 C126.24492187 12.42765625 126.48984375 11.8553125 126.7421875 11.265625 C128.21110099 8.61975598 129.95348244 6.85146861 132.125 4.75 C132.84945312 4.04359375 133.57390625 3.3371875 134.3203125 2.609375 C135.15175781 1.81273437 135.15175781 1.81273437 136 1 C137.98 1.99 137.98 1.99 140 3 C140 6.87454626 138.44116598 7.91256664 135.81155396 10.56170654 C135.19440521 11.16806946 134.57725647 11.77443237 133.94140625 12.39916992 C133.29767059 13.04334366 132.65393494 13.6875174 131.99069214 14.35121155 C129.85499349 16.48481535 127.70885472 18.60758937 125.5625 20.73046875 C124.0821119 22.2052634 122.60238349 23.68072053 121.12329102 25.15681458 C117.22374199 29.04489521 113.31526843 32.92388413 109.40490723 36.80108643 C105.41818482 40.75715107 101.43991459 44.72169484 97.4609375 48.68554688 C89.64890261 56.46538241 81.82741918 64.2356452 74 72 C73.38125 71.66226563 72.7625 71.32453125 72.125 70.9765625 C69.52162367 69.78015794 68.66924984 70.16585943 66 71 C61.35176344 71 60.49161798 69.95814261 57.31387329 66.81155396 C56.71110565 66.19440521 56.10833801 65.57725647 55.48730469 64.94140625 C54.52082504 63.97580276 54.52082504 63.97580276 53.53482056 62.99069214 C51.40422299 60.85730447 49.28814744 58.71009092 47.171875 56.5625 C45.69872861 55.08189458 44.2246975 53.60216894 42.74981689 52.12329102 C38.86773028 48.22592176 34.99780404 44.3166902 31.13024902 40.40490723 C27.18261833 36.41638103 23.22365954 32.43913483 19.265625 28.4609375 C11.49925774 20.65165287 3.74568435 12.82979572 -4 5 C-2.68 3.35 -1.36 1.7 0 0 Z " fill="#D6C34D" transform="translate(211,180)"/>
<path d="M0 0 C2.5625 -0.4375 2.5625 -0.4375 6 0 C7.84826407 1.44759144 9.34458795 3.02811099 10.8984375 4.78515625 C12.71017983 6.69455755 14.54150952 8.35258378 16.5390625 10.05859375 C22.48372015 15.20145526 27.92190638 20.8636875 33.43652344 26.45703125 C38.45225706 31.53781535 43.49447005 36.5032866 48.92285156 41.14550781 C53.9479635 45.63196177 58.58864021 50.54188306 63.31640625 55.33691406 C64.70632591 56.74482315 66.09920977 58.14980398 67.4921875 59.5546875 C68.31058105 60.38468262 69.12897461 61.21467773 69.97216797 62.06982422 C71.85260529 64.0482742 71.85260529 64.0482742 74 65 C74 65.66 74 66.32 74 67 C73.01 67.495 73.01 67.495 72 68 C71.505 69.485 71.505 69.485 71 71 C69.29296875 72.6484375 69.29296875 72.6484375 67.1875 74.375 C64.67178343 76.49089733 62.7368391 78.33428547 60.6875 80.9375 C59.8521875 81.9584375 59.8521875 81.9584375 59 83 C56 83 56 83 53.69458008 80.88427734 C52.80536865 79.93246582 51.91615723 78.9806543 51 78 C50.03061533 77.01800225 49.05741135 76.03976298 48.08081055 75.06494141 C47.30926888 74.2885582 47.30926888 74.2885582 46.5221405 73.49649048 C44.19219181 71.15299848 41.85944115 68.81230327 39.52661133 66.47167969 C38.30500164 65.2450428 37.08429119 64.01750968 35.86450195 62.7890625 C27.0329501 53.88593016 27.0329501 53.88593016 17.71948242 45.49462891 C14.77322721 42.93365 12.04978614 40.15552396 9.3125 37.375 C8.77044922 36.8284375 8.22839844 36.281875 7.66992188 35.71875 C5.25527963 33.28371874 2.84578195 30.84366616 0.4375 28.40234375 C-2.08237052 25.91881752 -4.67413252 23.54444161 -7.3125 21.1875 C-8.19550781 20.39730469 -9.07851563 19.60710937 -9.98828125 18.79296875 C-10.65214844 18.20128906 -11.31601562 17.60960938 -12 17 C-9.01720598 13.42487809 -6.0358556 9.98784414 -2.625 6.8125 C0.45487883 4.15382621 0.45487883 4.15382621 0 0 Z " fill="#B8F3F4" transform="translate(278,110)"/>
<path d="M0 0 C0.99 0.33 1.98 0.66 3 1 C2.58685438 5.44926052 -0.50461527 7.84100104 -3.5625 10.75 C-4.08263672 11.25660156 -4.60277344 11.76320313 -5.13867188 12.28515625 C-6.41910084 13.53034405 -7.70867554 14.76611502 -9 16 C-6.47350841 19.29468159 -3.9124855 22.12438733 -0.75 24.8125 C-0.04359375 25.41707031 0.6628125 26.02164063 1.390625 26.64453125 C2.18726563 27.31548828 2.18726563 27.31548828 3 28 C2.42542041 31.3788027 1.43491089 32.89424035 -1.09765625 35.171875 C-1.73050537 35.74993896 -2.36335449 36.32800293 -3.01538086 36.92358398 C-3.69093018 37.52630127 -4.36647949 38.12901855 -5.0625 38.75 C-6.44110415 40.00541319 -7.81871746 41.26191534 -9.1953125 42.51953125 C-9.85692383 43.12104004 -10.51853516 43.72254883 -11.20019531 44.34228516 C-13.34194607 46.31495033 -15.4013168 48.35634087 -17.4375 50.4375 C-20.47988592 53.53245415 -23.68029867 56.37069037 -26.9765625 59.19140625 C-29.91220468 61.81534897 -32.62122333 64.64618465 -35.3359375 67.49609375 C-37 69 -37 69 -39 69 C-39.2475 69.58523437 -39.495 70.17046875 -39.75 70.7734375 C-41.18407798 73.32788889 -42.75714334 74.75320419 -45 76.625 C-47.07660336 78.3733168 -49.07962765 80.07962765 -51 82 C-54.27036462 81.97843716 -55.31439595 80.69838067 -57.69140625 78.41796875 C-58.65712102 77.34892647 -59.61391963 76.27177473 -60.5625 75.1875 C-61.04396484 74.65318359 -61.52542969 74.11886719 -62.02148438 73.56835938 C-64.48917352 70.80875652 -66.83840675 68.00585189 -69 65 C-65.19982046 61.10885871 -61.39453972 57.27634157 -57.25 53.75 C-53.65483285 50.6643841 -50.32661904 47.36802709 -47 44 C-43.14879036 40.10103082 -39.23578255 36.39175688 -35.05859375 32.83984375 C-31.92846838 30.04233133 -29.01314342 27.03375494 -26.06616211 24.04663086 C-22.8726103 20.82653525 -19.56449686 17.83127993 -16.11328125 14.89453125 C-12.3837571 11.55105766 -8.91868979 7.93519054 -5.41796875 4.35546875 C-3 2 -3 2 0 0 Z " fill="#9051BD" transform="translate(276,110)"/>
<path d="M0 0 C4.13621084 3.3810038 7.81316569 6.66590534 11 11 C15.44340045 10.29022269 17.21595096 7.92009162 20.12109375 4.69140625 C22 3 22 3 27 1 C40.53 14.53 54.06 28.06 68 42 C66.07859132 45.84281736 64.4073184 47.80431927 61.375 50.75 C60.55773437 51.54921875 59.74046875 52.3484375 58.8984375 53.171875 C58.27195312 53.77515625 57.64546875 54.3784375 57 55 C60.50897269 59.18423892 64.08060535 63.19588166 68 67 C67.01 68.98 67.01 68.98 66 71 C61.35176344 71 60.49161798 69.95814261 57.31387329 66.81155396 C56.71110565 66.19440521 56.10833801 65.57725647 55.48730469 64.94140625 C54.52082504 63.97580276 54.52082504 63.97580276 53.53482056 62.99069214 C51.40422299 60.85730447 49.28814744 58.71009092 47.171875 56.5625 C45.69872861 55.08189458 44.2246975 53.60216894 42.74981689 52.12329102 C38.86773028 48.22592176 34.99780404 44.3166902 31.13024902 40.40490723 C27.18261833 36.41638103 23.22365954 32.43913483 19.265625 28.4609375 C11.49925774 20.65165287 3.74568435 12.82979572 -4 5 C-2.68 3.35 -1.36 1.7 0 0 Z " fill="#D5203A" transform="translate(211,180)"/>
<path d="M0 0 C1.23556641 0.01740234 1.23556641 0.01740234 2.49609375 0.03515625 C3.32238281 0.04417969 4.14867187 0.05320313 5 0.0625 C5.63808594 0.07410156 6.27617187 0.08570313 6.93359375 0.09765625 C9.71850286 7.23109452 12.08017401 14.49653157 14.43237305 21.78100586 C15.12552654 23.92386002 15.82537069 26.06445869 16.52539062 28.20507812 C16.96785802 29.57148185 17.40992972 30.93801379 17.8515625 32.3046875 C18.25141357 33.53678955 18.65126465 34.7688916 19.06323242 36.03833008 C19.93359375 39.09765625 19.93359375 39.09765625 19.93359375 42.09765625 C16.63359375 42.09765625 13.33359375 42.09765625 9.93359375 42.09765625 C9.43859375 39.62265625 9.43859375 39.62265625 8.93359375 37.09765625 C4.31359375 37.09765625 -0.30640625 37.09765625 -5.06640625 37.09765625 C-5.56140625 39.57265625 -5.56140625 39.57265625 -6.06640625 42.09765625 C-9.36640625 42.09765625 -12.66640625 42.09765625 -16.06640625 42.09765625 C-13.89920984 33.78767797 -11.35232437 25.6432753 -8.62255859 17.50537109 C-7.9313239 15.44256821 -7.24667079 13.37765519 -6.5625 11.3125 C-6.12408351 9.99856919 -5.68529575 8.6847622 -5.24609375 7.37109375 C-4.85147949 6.18950684 -4.45686523 5.00791992 -4.05029297 3.79052734 C-2.71218974 0.12817532 -2.71218974 0.12817532 0 0 Z " fill="#0A0A0A" transform="translate(277.06640625,151.90234375)"/>
<path d="M0 0 C4.63367431 2.23960925 8.13678362 4.70517542 11 9 C11.80085153 13.33537895 11.84628229 17.36238882 9.796875 21.328125 C6.94007892 25.22375601 3.80281354 29.43434127 -1.1484375 30.43359375 C-6.59560489 30.44315018 -9.81502381 29.80452381 -14 26 C-17.09319217 22.30126228 -19.29047737 18.77140742 -19.5625 13.875 C-18.76646592 8.3912097 -16.48724898 5.66221945 -12.875 1.625 C-8.56193093 -0.81282165 -4.83225691 -0.96502172 0 0 Z " fill="#131313" transform="translate(331,248)"/>
<path d="M0 0 C4.35990421 2.24324104 7.29051771 4.93577656 10 9 C10.81277237 13.91979027 11.31480049 18.95397358 8.5390625 23.2734375 C4.78882919 27.02367081 1.16852802 30.2803363 -4.3125 30.375 C-8.9291789 30.25508626 -11.48099511 29.10981827 -15 26 C-18.46570672 22.26068485 -19.28389948 19.40614281 -19.4375 14.4375 C-19.26375404 10.16334949 -18.90676312 7.30769596 -16 4 C-15.34 3.236875 -14.68 2.47375 -14 1.6875 C-9.39330872 -0.90376385 -5.15421395 -0.97181408 0 0 Z " fill="#151515" transform="translate(449,248)"/>
<path d="M0 0 C2.97 0 5.94 0 9 0 C9.33 1.65 9.66 3.3 10 5 C10.66 5 11.32 5 12 5 C16 11.5 16 11.5 16 16 C16.66 16 17.32 16 18 16 C18 10.72 18 5.44 18 0 C19.98 0 21.96 0 24 0 C24 9.57 24 19.14 24 29 C21.69 29 19.38 29 17 29 C16.34 27.35 15.68 25.7 15 24 C14.34 24 13.68 24 13 24 C12.01 21.03 11.02 18.06 10 15 C9.34 15 8.68 15 8 15 C8 19.95 8 24.9 8 30 C5.36 30 2.72 30 0 30 C0 20.1 0 10.2 0 0 Z " fill="#151515" transform="translate(463,248)"/>
<path d="M0 0 C2.31 0 4.62 0 7 0 C7 3.96 7 7.92 7 12 C9.97 12 12.94 12 16 12 C16 8.04 16 4.08 16 0 C17.98 0 19.96 0 22 0 C22 9.9 22 19.8 22 30 C19.69 30 17.38 30 15 30 C15 26.37 15 22.74 15 19 C12.69 19 10.38 19 8 19 C8 22.63 8 26.26 8 30 C5.36 30 2.72 30 0 30 C0 20.1 0 10.2 0 0 Z " fill="#151515" transform="translate(171,248)"/>
<path d="M0 0 C2.31 0 4.62 0 7 0 C17 23.23404255 17 23.23404255 17 30 C14.36 30 11.72 30 9 30 C9 28.68 9 27.36 9 26 C5.7 26 2.4 26 -1 26 C-1 27.32 -1 28.64 -1 30 C-3.64 30 -6.28 30 -9 30 C-8.31981644 26.23631762 -7.32777896 22.6812206 -6.15234375 19.04296875 C-5.79462891 17.93115234 -5.43691406 16.81933594 -5.06835938 15.67382812 C-4.69517578 14.52333984 -4.32199219 13.37285156 -3.9375 12.1875 C-3.37192383 10.43276367 -3.37192383 10.43276367 -2.79492188 8.64257812 C-1.86573321 5.76091708 -0.93400972 2.88010132 0 0 Z " fill="#151515" transform="translate(123,248)"/>
<path d="M0 0 C2.64 0 5.28 0 8 0 C9.314227 4.24946792 10.62608307 8.49966411 11.9375 12.75 C12.49727539 14.55984375 12.49727539 14.55984375 13.06835938 16.40625 C13.60493164 18.14648438 13.60493164 18.14648438 14.15234375 19.921875 C14.48226318 20.99018555 14.81218262 22.05849609 15.15209961 23.15917969 C15.83020603 25.43111931 16.45266723 27.69390459 17 30 C14.69 30 12.38 30 10 30 C9.67 28.68 9.34 27.36 9 26 C5.7 26 2.4 26 -1 26 C-1.33 27.32 -1.66 28.64 -2 30 C-4.31 30 -6.62 30 -9 30 C-7.60152532 23.11357167 -5.64985223 16.58173303 -3.375 9.9375 C-3.05015625 8.97650391 -2.7253125 8.01550781 -2.390625 7.02539062 C-1.59788808 4.68215356 -0.80095424 2.34043824 0 0 Z " fill="#141414" transform="translate(231,248)"/>
<path d="M0 0 C1.98 0 3.96 0 6 0 C6.01981934 0.59538574 6.03963867 1.19077148 6.06005859 1.80419922 C6.15516126 4.49492153 6.26489842 7.18485148 6.375 9.875 C6.4059375 10.81214844 6.436875 11.74929688 6.46875 12.71484375 C6.50742187 13.61074219 6.54609375 14.50664062 6.5859375 15.4296875 C6.6173584 16.25710449 6.6487793 17.08452148 6.68115234 17.93701172 C6.82599137 20.21986085 6.82599137 20.21986085 9 22 C10.98 22 12.96 22 15 22 C15 14.74 15 7.48 15 0 C17.31 0 19.62 0 22 0 C22 7.59 22 15.18 22 23 C21.34 23 20.68 23 20 23 C19.7525 23.598125 19.505 24.19625 19.25 24.8125 C17.7457326 27.44496795 16.67492092 28.5540968 14 30 C10.5625 30.5 10.5625 30.5 7 30 C4.1875 27.625 4.1875 27.625 2 25 C1.34 24.34 0.68 23.68 0 23 C-0.22705078 20.66162109 -0.22705078 20.66162109 -0.1953125 17.7734375 C-0.18886719 16.7421875 -0.18242187 15.7109375 -0.17578125 14.6484375 C-0.15902344 13.56820313 -0.14226562 12.48796875 -0.125 11.375 C-0.11597656 10.28703125 -0.10695313 9.1990625 -0.09765625 8.078125 C-0.07403409 5.38519848 -0.04109556 2.69270745 0 0 Z " fill="#101010" transform="translate(369,248)"/>
<path d="M0 0 C3 1.1875 3 1.1875 5 3 C5.3125 5.6875 5.3125 5.6875 5 8 C2.03 7.67 -0.94 7.34 -4 7 C-4 8.32 -4 9.64 -4 11 C-2.906875 11.226875 -1.81375 11.45375 -0.6875 11.6875 C3 13 3 13 4.9375 15.125 C6.32849741 18.88887534 6.97100966 22.05228858 6 26 C2.95615245 29.56352884 1.05687034 30.81458415 -3.5625 31.625 C-7.92432891 30.8319402 -9.35039085 29.50683563 -12 26 C-12.8125 23.1875 -12.8125 23.1875 -13 21 C-10.69 21 -8.38 21 -6 21 C-5.67 21.66 -5.34 22.32 -5 23 C-4.01 23 -3.02 23 -2 23 C-2 21.68 -2 20.36 -2 19 C-2.83144531 18.61908203 -2.83144531 18.61908203 -3.6796875 18.23046875 C-4.40414063 17.88628906 -5.12859375 17.54210937 -5.875 17.1875 C-6.59429687 16.85105469 -7.31359375 16.51460938 -8.0546875 16.16796875 C-10 15 -10 15 -12 12 C-12.65753425 5.09589041 -12.65753425 5.09589041 -10.5 1.5 C-7.01763373 -0.58941976 -3.90512053 -0.63409878 0 0 Z " fill="#141414" transform="translate(302,248)"/>
<path d="M0 0 C0.78375 0.33 1.5675 0.66 2.375 1 C1.80155063 3.86724686 1.5135485 4.8614515 -0.625 7 C-3.43550716 7.10116066 -6.18876503 6.9306067 -8.99609375 6.77734375 C-11.62318069 6.78882734 -11.62318069 6.78882734 -13.4609375 8.2109375 C-14.96246772 10.51865844 -14.93120658 11.95724857 -14.8125 14.6875 C-14.78542969 15.49574219 -14.75835937 16.30398438 -14.73046875 17.13671875 C-14.69566406 17.75160156 -14.66085938 18.36648438 -14.625 19 C-11.07269029 20.93692749 -8.69688766 21.25449298 -4.625 21 C-3.903125 20.773125 -3.18125 20.54625 -2.4375 20.3125 C-1.839375 20.209375 -1.24125 20.10625 -0.625 20 C1.125 21.4375 1.125 21.4375 2.375 23 C1.00516497 26.16115776 0.3859362 26.9927092 -2.625 29 C-7.12123439 29.73652601 -10.73735719 29.4096813 -14.875 27.5 C-19.34095316 23.44004259 -22.84164769 19.10034153 -23.1875 12.875 C-22.39146592 7.3912097 -20.11224898 4.66221945 -16.5 0.625 C-11.23450685 -2.3511483 -5.67611365 -1.56582445 0 0 Z " fill="#141414" transform="translate(164.625,249)"/>
<path d="M0 0 C2.31 0 4.62 0 7 0 C7 7.59 7 15.18 7 23 C10.63 23 14.26 23 18 23 C18 25.31 18 27.62 18 30 C12.06 30 6.12 30 0 30 C0 20.1 0 10.2 0 0 Z " fill="#171717" transform="translate(200,248)"/>
<path d="M0 0 C5.61 0 11.22 0 17 0 C17 2.31 17 4.62 17 7 C15.02 7 13.04 7 11 7 C11 14.26 11 21.52 11 29 C9.02 29 7.04 29 5 29 C5 21.41 5 13.82 5 6 C3.35 6 1.7 6 0 6 C0 4.02 0 2.04 0 0 Z " fill="#060606" transform="translate(397,248)"/>
<path d="M0 0 C1.98 0 3.96 0 6 0 C6 7.59 6 15.18 6 23 C9.3 23 12.6 23 16 23 C16 24.98 16 26.96 16 29 C10.72 29 5.44 29 0 29 C0 19.43 0 9.86 0 0 Z " fill="#040404" transform="translate(347,248)"/>
<path d="M0 0 C2.9375 1.5 2.9375 1.5 5 4 C5.71196877 6.82472163 5.71755985 9.1760548 5 12 C2.45767292 14.99097304 0.8425303 15.84202557 -3 16.5625 C-7.13607554 15.78698584 -8.54999553 14.38677089 -11 11 C-11.63007693 7.00951279 -11.63021887 4.98314143 -9.4375 1.5625 C-6.04295632 -0.61348954 -3.9634351 -0.55627159 0 0 Z " fill="#ECECEC" transform="translate(330,255)"/>
<path d="M0 0 C2.9375 0.9375 2.9375 0.9375 5 3 C5.73109741 6.13836937 5.70323519 8.85812665 5 12 C2.4323911 15.09623426 0.88630606 15.85529697 -3.0625 16.5 C-6 16 -6 16 -8.375 14.5625 C-10.70069294 10.89506113 -10.86672198 7.23991022 -10 3 C-7.17061352 -0.76971671 -4.54505591 -0.4701782 0 0 Z " fill="#F0F0F0" transform="translate(447,255)"/>
<path d="M0 0 C5 1 5 1 7.125 1.6875 C9.32914667 2.27452637 9.32914667 2.27452637 12 0 C15.46418389 0.34641839 17.04929881 1.03286587 20 3 C20.4375 5.4375 20.4375 5.4375 20 8 C17.88667539 10.26986717 16.57790964 10.92776129 13.5 11.3125 C10.91369639 10.98921205 9.22884238 10.32079548 7 9 C6.01 9.66 5.02 10.32 4 11 C2.68 11 1.36 11 0 11 C0 7.37 0 3.74 0 0 Z " fill="#404040" transform="translate(256,293)"/>
<path d="M0 0 C1.98 0 3.96 0 6 0 C6 9.57 6 19.14 6 29 C4.02 29 2.04 29 0 29 C0 19.43 0 9.86 0 0 Z " fill="#080808" transform="translate(419,248)"/>
<path d="M0 0 C5 1 5 1 7.1875 1.6875 C7.785625 1.790625 8.38375 1.89375 9 2 C9.66 1.34 10.32 0.68 11 0 C13.80984248 -0.36023622 15.38241919 -0.38332602 17.8125 1.125 C19.54458662 3.85987361 19.40373601 5.83740129 19 9 C15.73036051 11.17975966 14.78270322 11.36904422 11 11 C8.6875 10 8.6875 10 7 9 C6.01 9.66 5.02 10.32 4 11 C2.68 11 1.36 11 0 11 C0 7.37 0 3.74 0 0 Z " fill="#575757" transform="translate(344,293)"/>
<path d="M0 0 C1.32 0 2.64 0 4 0 C5.25664978 2.90600261 6 4.79604584 6 8 C6.66 8 7.32 8 8 8 C8 5.36 8 2.72 8 0 C8.99 0 9.98 0 11 0 C11 3.63 11 7.26 11 11 C8.69 11.33 6.38 11.66 4 12 C4 11.34 4 10.68 4 10 C1.69 10.33 -0.62 10.66 -3 11 C-2.69078116 9.54096742 -2.37751201 8.08279278 -2.0625 6.625 C-1.88847656 5.81289063 -1.71445312 5.00078125 -1.53515625 4.1640625 C-1 2 -1 2 0 0 Z " fill="#4E4E4E" transform="translate(411,293)"/>
<path d="M0 0 C0.804375 0.185625 1.60875 0.37125 2.4375 0.5625 C3.283125 0.706875 4.12875 0.85125 5 1 C5.33 0.67 5.66 0.34 6 0 C8.67058851 -0.14115161 11.32432238 -0.04247107 14 0 C14 0.99 14 1.98 14 3 C13.34 3 12.68 3 12 3 C12 5.64 12 8.28 12 11 C10.68 11 9.36 11 8 11 C8 8.36 8 5.72 8 3 C6.35 3.33 4.7 3.66 3 4 C3.66 4.33 4.32 4.66 5 5 C5 6.65 5 8.3 5 10 C3.35 10.33 1.7 10.66 0 11 C-0.33 10.01 -0.66 9.02 -1 8 C-0.01 7.67 0.98 7.34 2 7 C1.01 6.34 0.02 5.68 -1 5 C-0.67 3.35 -0.34 1.7 0 0 Z " fill="#555555" transform="translate(236,293)"/>
<path d="M0 0 C0.99 0 1.98 0 3 0 C3 1.32 3 2.64 3 4 C3.66 4 4.32 4 5 4 C5 2.68 5 1.36 5 0 C5.7425 0.185625 6.485 0.37125 7.25 0.5625 C9.99177639 0.9986917 11.39298201 0.75202442 14 0 C13.69078116 1.45903258 13.37751201 2.91720722 13.0625 4.375 C12.88847656 5.18710937 12.71445312 5.99921875 12.53515625 6.8359375 C12 9 12 9 11 11 C10.01 11 9.02 11 8 11 C8 9.68 8 8.36 8 7 C7.34 7 6.68 7 6 7 C6 8.32 6 9.64 6 11 C5.01 11 4.02 11 3 11 C2.67 9.02 2.34 7.04 2 5 C1.34 5 0.68 5 0 5 C0 3.35 0 1.7 0 0 Z " fill="#2E2E2E" transform="translate(298,293)"/>
<path d="M0 0 C1.8125 1.1875 1.8125 1.1875 3 3 C3.4334014 5.88934264 3.42525784 7.35092224 1.8125 9.8125 C-0.64907776 11.42525784 -2.11065736 11.4334014 -5 11 C-6.8125 9.8125 -6.8125 9.8125 -8 8 C-8.4334014 5.11065736 -8.42525784 3.64907776 -6.8125 1.1875 C-4.35092224 -0.42525784 -2.88934264 -0.4334014 0 0 Z " fill="#313131" transform="translate(189,293)"/>
<path d="M0 0 C3.63 0 7.26 0 11 0 C11 0.99 11 1.98 11 3 C10.34 3 9.68 3 9 3 C9 5.64 9 8.28 9 11 C8.01 11 7.02 11 6 11 C6 8.36 6 5.72 6 3 C5.34 3 4.68 3 4 3 C4 5.64 4 8.28 4 11 C2.68 11 1.36 11 0 11 C0 7.37 0 3.74 0 0 Z " fill="#686868" transform="translate(281,293)"/>
<path d="M0 0 C0.99 0 1.98 0 3 0 C3.66 1.32 4.32 2.64 5 4 C5.33 2.68 5.66 1.36 6 0 C6.99 0 7.98 0 9 0 C9 3.63 9 7.26 9 11 C7.68 10.67 6.36 10.34 5 10 C5 9.34 5 8.68 5 8 C4.34 8 3.68 8 3 8 C3 8.99 3 9.98 3 11 C2.01 11 1.02 11 0 11 C0 7.37 0 3.74 0 0 Z " fill="#2C2C2C" transform="translate(424,293)"/>
<path d="M0 0 C5 0 5 0 6.875 1.0625 C8.64782183 4.11569315 7.69235306 6.66411708 7 10 C4.69 10.33 2.38 10.66 0 11 C0 7.37 0 3.74 0 0 Z " fill="#2B2B2B" transform="translate(172,293)"/>
<path d="M0 0 C5 1 5 1 7 2 C7.1875 5.375 7.1875 5.375 7 9 C4 11 4 11 0 11 C0 7.37 0 3.74 0 0 Z " fill="#4E4E4E" transform="translate(344,293)"/>
<path d="M0 0 C5 1 5 1 7 2 C7.1875 5.375 7.1875 5.375 7 9 C4 11 4 11 0 11 C0 7.37 0 3.74 0 0 Z " fill="#4E4E4E" transform="translate(256,293)"/>
<path d="M0 0 C0.78375 0.04125 1.5675 0.0825 2.375 0.125 C2.705 1.115 3.035 2.105 3.375 3.125 C1.725 3.455 0.075 3.785 -1.625 4.125 C-1.625 5.445 -1.625 6.765 -1.625 8.125 C-0.635 8.455 0.355 8.785 1.375 9.125 C1.045 7.805 0.715 6.485 0.375 5.125 C1.695 5.125 3.015 5.125 4.375 5.125 C4.375 7.105 4.375 9.085 4.375 11.125 C1 11.25 1 11.25 -2.625 11.125 C-4.625 9.125 -4.625 9.125 -4.875 5.625 C-4.58138251 1.51435512 -4.25902123 0.20281053 0 0 Z " fill="#1C1C1C" transform="translate(401.625,292.875)"/>
<path d="M0 0 C0.99 0 1.98 0 3 0 C3.50615298 1.26839526 4.00469099 2.53983102 4.5 3.8125 C4.91765625 4.87404297 4.91765625 4.87404297 5.34375 5.95703125 C6 8 6 8 6 11 C3.03 11 0.06 11 -3 11 C-2.01 7.37 -1.02 3.74 0 0 Z " fill="#242424" transform="translate(389,293)"/>
<path d="M0 0 C0.99 0 1.98 0 3 0 C3.50615298 1.26839526 4.00469099 2.53983102 4.5 3.8125 C4.91765625 4.87404297 4.91765625 4.87404297 5.34375 5.95703125 C6 8 6 8 6 11 C3.03 11 0.06 11 -3 11 C-2.01 7.37 -1.02 3.74 0 0 Z " fill="#242424" transform="translate(227,293)"/>
<path d="M0 0 C2.31 0 4.62 0 7 0 C7 0.66 7 1.32 7 2 C5.68 2 4.36 2 3 2 C3 2.66 3 3.32 3 4 C4.32 4 5.64 4 7 4 C7 4.99 7 5.98 7 7 C5.68 7 4.36 7 3 7 C3 7.66 3 8.32 3 9 C4.32 9 5.64 9 7 9 C7 9.66 7 10.32 7 11 C4.69 11 2.38 11 0 11 C0 7.37 0 3.74 0 0 Z " fill="#2D2D2D" transform="translate(313,293)"/>
<path d="M0 0 C2.31 0 4.62 0 7 0 C6.67 2.31 6.34 4.62 6 7 C5.01 7 4.02 7 3 7 C3 8.32 3 9.64 3 11 C2.01 11 1.02 11 0 11 C0 7.37 0 3.74 0 0 Z " fill="#383838" transform="translate(215,293)"/>
<path d="M0 0 C2.375 -0.125 2.375 -0.125 5 0 C7 2 7 2 7.3125 5 C7.1578125 6.485 7.1578125 6.485 7 8 C3.77626323 10.14915785 2.73296326 10.38286803 -1 10 C-3 8 -3 8 -3.125 5.375 C-3.08375 4.59125 -3.0425 3.8075 -3 3 C-2.01 4.485 -2.01 4.485 -1 6 C1.56282742 6.72965366 1.56282742 6.72965366 4 7 C3.72965366 4.56282742 3.72965366 4.56282742 3 2 C2.01 1.34 1.02 0.68 0 0 Z " fill="#292929" transform="translate(356,294)"/>
<path d="M0 0 C0.99 0 1.98 0 3 0 C3 1.32 3 2.64 3 4 C3.66 4 4.32 4 5 4 C5.33 3.01 5.66 2.02 6 1 C6.66 1 7.32 1 8 1 C8 2.65 8 4.3 8 6 C7.34 6 6.68 6 6 6 C6 7.65 6 9.3 6 11 C5.01 11 4.02 11 3 11 C2.67 9.02 2.34 7.04 2 5 C1.34 5 0.68 5 0 5 C0 3.35 0 1.7 0 0 Z " fill="#0E0E0E" transform="translate(298,293)"/>
<path d="M0 0 C0.99 0 1.98 0 3 0 C3 3.63 3 7.26 3 11 C0.69 11.33 -1.62 11.66 -4 12 C-3.34 11.67 -2.68 11.34 -2 11 C-2.66 8.69 -3.32 6.38 -4 4 C-3.01 4.495 -3.01 4.495 -2 5 C-2 5.99 -2 6.98 -2 8 C-1.34 8 -0.68 8 0 8 C0 5.36 0 2.72 0 0 Z " fill="#636363" transform="translate(419,293)"/>
<path d="M0 0 C1.32 0 2.64 0 4 0 C3.67 1.32 3.34 2.64 3 4 C3.66 4.33 4.32 4.66 5 5 C5 6.65 5 8.3 5 10 C3.35 10.33 1.7 10.66 0 11 C-0.33 10.01 -0.66 9.02 -1 8 C-0.01 7.67 0.98 7.34 2 7 C1.01 6.34 0.02 5.68 -1 5 C-0.67 3.35 -0.34 1.7 0 0 Z " fill="#282828" transform="translate(236,293)"/>
<path d="M0 0 C2.31 0 4.62 0 7 0 C7 0.99 7 1.98 7 3 C6.34 3 5.68 3 5 3 C5 5.64 5 8.28 5 11 C4.01 11 3.02 11 2 11 C2 8.36 2 5.72 2 3 C1.34 3 0.68 3 0 3 C0 2.01 0 1.02 0 0 Z " fill="#3C3C3C" transform="translate(373,293)"/>
<path d="M0 0 C2.31 0 4.62 0 7 0 C7 0.99 7 1.98 7 3 C6.34 3 5.68 3 5 3 C5 5.64 5 8.28 5 11 C4.01 11 3.02 11 2 11 C2 8.36 2 5.72 2 3 C1.34 3 0.68 3 0 3 C0 2.01 0 1.02 0 0 Z " fill="#3A3A3A" transform="translate(202,293)"/>
<path d="M0 0 C0.99 0 1.98 0 3 0 C3 2.64 3 5.28 3 8 C4.32 8.33 5.64 8.66 7 9 C7 9.66 7 10.32 7 11 C4.69 11 2.38 11 0 11 C0 7.37 0 3.74 0 0 Z " fill="#3B3B3B" transform="translate(322,293)"/>
<path d="M0 0 C0.99 0 1.98 0 3 0 C3 2.97 3 5.94 3 9 C4.32 9 5.64 9 7 9 C7 9.66 7 10.32 7 11 C4.69 11 2.38 11 0 11 C0 7.37 0 3.74 0 0 Z " fill="#353535" transform="translate(330,293)"/>
<path d="M0 0 C3.00617269 3.00617269 2.59585316 5.82381598 3 10 C1.02 10 -0.96 10 -3 10 C-2.69201674 8.51988629 -2.378482 7.04092675 -2.0625 5.5625 C-1.88847656 4.73878906 -1.71445312 3.91507813 -1.53515625 3.06640625 C-1 1 -1 1 0 0 Z " fill="#C9C9C9" transform="translate(279,170)"/>
<path d="M0 0 C0.66 0 1.32 0 2 0 C2 3.63 2 7.26 2 11 C1.34 11 0.68 11 0 11 C0 10.34 0 9.68 0 9 C-1.32 9 -2.64 9 -4 9 C-4 8.34 -4 7.68 -4 7 C-2.68 7 -1.36 7 0 7 C0 6.01 0 5.02 0 4 C-1.32 4 -2.64 4 -4 4 C-4 3.34 -4 2.68 -4 2 C-2.68 2 -1.36 2 0 2 C0 1.34 0 0.68 0 0 Z " fill="#C0C0C0" transform="translate(320,293)"/>
<path d="M0 0 C0.66 0 1.32 0 2 0 C2 1.32 2 2.64 2 4 C3.98 4 5.96 4 8 4 C8 3.01 8 2.02 8 1 C8.66 1 9.32 1 10 1 C9.67 2.65 9.34 4.3 9 6 C5.625 6.625 5.625 6.625 2 7 C0 5 0 5 -0.125 2.375 C-0.08375 1.59125 -0.0425 0.8075 0 0 Z " fill="#272727" transform="translate(265,297)"/>
<path d="M0 0 C0.99 0 1.98 0 3 0 C3 3.63 3 7.26 3 11 C2.01 11 1.02 11 0 11 C0 7.37 0 3.74 0 0 Z " fill="#414141" transform="translate(369,293)"/>
<path d="M0 0 C0.99 0 1.98 0 3 0 C3 3.63 3 7.26 3 11 C2.01 11 1.02 11 0 11 C0 7.37 0 3.74 0 0 Z " fill="#424242" transform="translate(198,293)"/>
<path d="M0 0 C1.98 0 3.96 0 6 0 C6 0.99 6 1.98 6 3 C5.34 3 4.68 3 4 3 C4 5.64 4 8.28 4 11 C3.34 11 2.68 11 2 11 C2 8.03 2 5.06 2 2 C1.34 2 0.68 2 0 2 C0 1.34 0 0.68 0 0 Z " fill="#202020" transform="translate(286,293)"/>
<path d="M0 0 C0.99 0 1.98 0 3 0 C3.66 3.63 4.32 7.26 5 11 C4.34 11 3.68 11 3 11 C3 10.34 3 9.68 3 9 C2.01 8.67 1.02 8.34 0 8 C0.66 8 1.32 8 2 8 C2 7.01 2 6.02 2 5 C1.01 5.33 0.02 5.66 -1 6 C-0.67 4.02 -0.34 2.04 0 0 Z " fill="#181818" transform="translate(412,293)"/>
<path d="M0 0 C0.99 0 1.98 0 3 0 C3.33 1.65 3.66 3.3 4 5 C3.34 5 2.68 5 2 5 C2 6.98 2 8.96 2 11 C1.34 11 0.68 11 0 11 C0 7.37 0 3.74 0 0 Z " fill="#1C1C1C" transform="translate(424,293)"/>
<path d="M0 0 C1.5 1.25 1.5 1.25 3 3 C3 4.32 3 5.64 3 7 C1.35 7 -0.3 7 -2 7 C-2.125 4.625 -2.125 4.625 -2 2 C-1.34 1.34 -0.68 0.68 0 0 Z " fill="#8D8D8D" transform="translate(235,261)"/>
<path d="M0 0 C1.32 0.33 2.64 0.66 4 1 C4.33 2.98 4.66 4.96 5 7 C3.35 6.67 1.7 6.34 0 6 C0 4.02 0 2.04 0 0 Z " fill="#7A7A7A" transform="translate(174,296)"/>
<path d="M0 0 C0.78375 0.04125 1.5675 0.0825 2.375 0.125 C2.705 1.115 3.035 2.105 3.375 3.125 C2.59125 3.228125 1.8075 3.33125 1 3.4375 C-1.95545181 3.90095022 -1.95545181 3.90095022 -3.625 7.125 C-4.25 4.75 -4.25 4.75 -4.625 2.125 C-2.625 0.125 -2.625 0.125 0 0 Z " fill="#343434" transform="translate(401.625,292.875)"/>
<path d="M0 0 C0.66 0 1.32 0 2 0 C2.36075949 4.44936709 2.36075949 4.44936709 0.8125 6.8125 C-1.55982525 8.36678206 -3.22041345 8.22537188 -6 8 C-6 7.34 -6 6.68 -6 6 C-5.195625 5.7525 -4.39125 5.505 -3.5625 5.25 C-0.828919 4.27761141 -0.828919 4.27761141 -0.1875 1.875 C-0.125625 1.25625 -0.06375 0.6375 0 0 Z " fill="#242424" transform="translate(190,296)"/>
<path d="M0 0 C0.99 0 1.98 0 3 0 C3 1.32 3 2.64 3 4 C3.66 4 4.32 4 5 4 C5 4.99 5 5.98 5 7 C4.01 7.33 3.02 7.66 2 8 C2 7.01 2 6.02 2 5 C1.34 5 0.68 5 0 5 C0 3.35 0 1.7 0 0 Z " fill="#3E3E3E" transform="translate(298,293)"/>
<path d="M0 0 C1.32 0 2.64 0 4 0 C4 1.65 4 3.3 4 5 C2.35 5 0.7 5 -1 5 C-0.67 3.35 -0.34 1.7 0 0 Z " fill="#E3E3E3" transform="translate(356,296)"/>
<path d="M0 0 C2.475 0.495 2.475 0.495 5 1 C5 2.32 5 3.64 5 5 C3.35 5 1.7 5 0 5 C0 3.35 0 1.7 0 0 Z " fill="#DEDEDE" transform="translate(268,296)"/>
<path d="M0 0 C2.475 0.495 2.475 0.495 5 1 C5 2.32 5 3.64 5 5 C3.35 5 1.7 5 0 5 C0 3.35 0 1.7 0 0 Z " fill="#E3E3E3" transform="translate(184,296)"/>
<path d="M0 0 C2 3 2 3 2 6 C-0.97 6 -3.94 6 -7 6 C-6.67 4.35 -6.34 2.7 -6 1 C-5.67 1.99 -5.34 2.98 -5 4 C-3.01508358 3.73323796 -3.01508358 3.73323796 -1 3 C-0.67 2.01 -0.34 1.02 0 0 Z " fill="#383838" transform="translate(393,298)"/>
<path d="M0 0 C2 3 2 3 2 6 C-0.97 6 -3.94 6 -7 6 C-6.67 4.35 -6.34 2.7 -6 1 C-5.67 1.99 -5.34 2.98 -5 4 C-3.01508358 3.73323796 -3.01508358 3.73323796 -1 3 C-0.67 2.01 -0.34 1.02 0 0 Z " fill="#383838" transform="translate(231,298)"/>
<path d="M0 0 C0.33 0 0.66 0 1 0 C1 3.63 1 7.26 1 11 C0.01 11 -0.98 11 -2 11 C-3 9 -3 9 -2.44140625 6.8359375 C-2.15136719 6.02382813 -1.86132812 5.21171875 -1.5625 4.375 C-1.27503906 3.55773437 -0.98757813 2.74046875 -0.69140625 1.8984375 C-0.46324219 1.27195312 -0.23507812 0.64546875 0 0 Z " fill="#D8D8D8" transform="translate(312,293)"/>
<path d="M0 0 C0.8353125 0.37125 0.8353125 0.37125 1.6875 0.75 C0.945 1.1625 0.2025 1.575 -0.5625 2 C-3.36334308 3.64266462 -3.36334308 3.64266462 -5.5 5.9375 C-6.098125 6.535625 -6.69625 7.13375 -7.3125 7.75 C-7.9725 7.75 -8.6325 7.75 -9.3125 7.75 C-7.69865111 3.642021 -4.79776509 -0.51867731 0 0 Z " fill="#454545" transform="translate(323.3125,248.25)"/>
<path d="M0 0 C0.8353125 0.37125 0.8353125 0.37125 1.6875 0.75 C0.945 1.1625 0.2025 1.575 -0.5625 2 C-3.36334308 3.64266462 -3.36334308 3.64266462 -5.5 5.9375 C-6.098125 6.535625 -6.69625 7.13375 -7.3125 7.75 C-7.9725 7.75 -8.6325 7.75 -9.3125 7.75 C-7.69865111 3.642021 -4.79776509 -0.51867731 0 0 Z " fill="#444444" transform="translate(153.3125,248.25)"/>
<path d="M0 0 C0.33 0 0.66 0 1 0 C1 2.31 1 4.62 1 7 C0.360625 7.103125 -0.27875 7.20625 -0.9375 7.3125 C-1.618125 7.539375 -2.29875 7.76625 -3 8 C-3.33 8.99 -3.66 9.98 -4 11 C-4 9.02 -4 7.04 -4 5 C-3.01 4.67 -2.02 4.34 -1 4 C-0.26676204 1.98491642 -0.26676204 1.98491642 0 0 Z " fill="#545454" transform="translate(430,293)"/>
<path d="M0 0 C0 2.31 0 4.62 0 7 C-0.33 5.68 -0.66 4.36 -1 3 C-1.66 3 -2.32 3 -3 3 C-3 4.32 -3 5.64 -3 7 C-3.66 7 -4.32 7 -5 7 C-5.1875 4.625 -5.1875 4.625 -5 2 C-2 0 -2 0 0 0 Z " fill="#747474" transform="translate(268,294)"/>
<path d="M0 0 C0.99 0.33 1.98 0.66 3 1 C3 2.65 3 4.3 3 6 C1.68 6 0.36 6 -1 6 C-0.67 4.02 -0.34 2.04 0 0 Z " fill="#B1B1B1" transform="translate(126,261)"/>
<path d="M0 0 C1.65 0 3.3 0 5 0 C4.01 0.66 3.02 1.32 2 2 C2.33 3.32 2.66 4.64 3 6 C1.68 5.67 0.36 5.34 -1 5 C-0.67 3.35 -0.34 1.7 0 0 Z " fill="#AFAFAF" transform="translate(400,296)"/>
<path d="M0 0 C0.33 0 0.66 0 1 0 C1 1.98 1 3.96 1 6 C1.99 6.33 2.98 6.66 4 7 C2.35 7.33 0.7 7.66 -1 8 C-1.125 2.25 -1.125 2.25 0 0 Z " fill="#151515" transform="translate(345,296)"/>
<path d="M0 0 C0.33 0 0.66 0 1 0 C1 1.98 1 3.96 1 6 C1.99 6.33 2.98 6.66 4 7 C2.35 7.33 0.7 7.66 -1 8 C-1.125 2.25 -1.125 2.25 0 0 Z " fill="#151515" transform="translate(257,296)"/>
<path d="M0 0 C2.375 -0.1875 2.375 -0.1875 5 0 C5.66 0.99 6.32 1.98 7 3 C6.34 4.32 5.68 5.64 5 7 C4.67 6.01 4.34 5.02 4 4 C3.01 3.34 2.02 2.68 1 2 C0.67 1.34 0.34 0.68 0 0 Z " fill="#464646" transform="translate(184,293)"/>
<path d="M0 0 C0.99 0 1.98 0 3 0 C2.67 1.98 2.34 3.96 2 6 C0.68 5.34 -0.64 4.68 -2 4 C-1.34 2.68 -0.68 1.36 0 0 Z " fill="#5E5E5E" transform="translate(309,293)"/>
</svg>
